<svg width="512" height="512" viewBox="0 0 512 512" xmlns="http://www.w3.org/2000/svg">
  <defs>
    <linearGradient id="grad1" x1="0%" y1="0%" x2="100%" y2="100%">
      <stop offset="0%" style="stop-color:#3b82f6;stop-opacity:1" />
      <stop offset="100%" style="stop-color:#2563eb;stop-opacity:1" />
    </linearGradient>
  </defs>
  <rect width="512" height="512" rx="100" fill="url(#grad1)" />
  <path d="M140 380 L140 132 C140 120 150 110 162 110 L350 110 C362 110 372 120 372 132 L372 380 C372 392 362 402 350 402 L162 402 C150 402 140 392 140 380 Z" fill="white" opacity="0.9"/>
  <path d="M162 110 L180 110 L180 402 L162 402 Z" fill="#e5e7eb" />
  <path d="M220 160 L320 160" stroke="#3b82f6" stroke-width="20" stroke-linecap="round"/>
  <path d="M220 220 L320 220" stroke="#93c5fd" stroke-width="20" stroke-linecap="round"/>
  <path d="M220 280 L290 280" stroke="#93c5fd" stroke-width="20" stroke-linecap="round"/>
</svg>
